<svg width="32" height="32" viewBox="0 0 32 32" fill="none" xmlns="http://www.w3.org/2000/svg">
  <!-- Círculo externo da roleta -->
  <circle cx="16" cy="16" r="15" fill="#1a1a1a" stroke="#fbbf24" stroke-width="2"/>
  
  <!-- Setores da roleta (alternando vermelho e preto) -->
  <path d="M16 16 L16 1 A15 15 0 0 1 28.99 9" fill="#dc2626"/>
  <path d="M16 16 L28.99 9 A15 15 0 0 1 28.99 23" fill="#1a1a1a"/>
  <path d="M16 16 L28.99 23 A15 15 0 0 1 16 31" fill="#dc2626"/>
  <path d="M16 16 L16 31 A15 15 0 0 1 3.01 23" fill="#1a1a1a"/>
  <path d="M16 16 L3.01 23 A15 15 0 0 1 3.01 9" fill="#dc2626"/>
  <path d="M16 16 L3.01 9 A15 15 0 0 1 16 1" fill="#1a1a1a"/>
  
  <!-- Círculo central -->
  <circle cx="16" cy="16" r="6" fill="#fbbf24"/>
  <circle cx="16" cy="16" r="4" fill="#1a1a1a"/>
  
  <!-- Números decorativos -->
  <text x="16" y="6" font-size="3" fill="#fbbf24" text-anchor="middle" font-weight="bold">0</text>
  <text x="26" y="12" font-size="3" fill="#fbbf24" text-anchor="middle" font-weight="bold">32</text>
  <text x="26" y="22" font-size="3" fill="#fbbf24" text-anchor="middle" font-weight="bold">15</text>
  
  <!-- Indicador/Seta -->
  <path d="M16 10 L18 14 L14 14 Z" fill="#22c55e"/>
</svg>
